<?xml version="1.0" encoding="UTF-8" standalone="no"?>
<!-- Generator: visioncortex VTracer 0.6.5 -->

<svg
   version="1.1"
   width="165.8905"
   height="166.19173"
   id="svg6"
   sodipodi:docname="thumbnail_sem_verde.svg"
   inkscape:version="1.4.3 (0d15f75, 2025-12-25)"
   xmlns:inkscape="http://www.inkscape.org/namespaces/inkscape"
   xmlns:sodipodi="http://sodipodi.sourceforge.net/DTD/sodipodi-0.dtd"
   xmlns="http://www.w3.org/2000/svg"
   xmlns:svg="http://www.w3.org/2000/svg">
  <defs
     id="defs6" />
  <sodipodi:namedview
     id="namedview6"
     pagecolor="#ffffff"
     bordercolor="#000000"
     borderopacity="0.25"
     inkscape:showpageshadow="2"
     inkscape:pageopacity="0.0"
     inkscape:pagecheckerboard="0"
     inkscape:deskcolor="#d1d1d1"
     inkscape:zoom="2.7584245"
     inkscape:cx="102.41353"
     inkscape:cy="63.623276"
     inkscape:window-width="1482"
     inkscape:window-height="860"
     inkscape:window-x="0"
     inkscape:window-y="38"
     inkscape:window-maximized="0"
     inkscape:current-layer="svg6" />
  <path
     d="m 127.75639,16.622557 c 4.62602,3.420259 8.84175,7.157016 12.94464,11.179649 0.71801,0.68405 1.43602,1.378313 2.1848,2.082784 9.52897,9.842174 15.07815,22.553282 18.3297,35.693199 0.20514,0.755518 0.40003,1.511039 0.59491,2.297188 2.12325,13.752499 0.64621,27.44375 -3.67209,40.583663 -0.2872,0.92908 -0.58467,1.86838 -0.89238,2.83831 -6.7903,19.05134 -22.57619,34.24341 -40.57766,42.91147 -1.89759,0.76572 -3.79518,1.51104 -5.71329,2.23593 -0.47182,0.19398 -0.47182,0.19398 -2.91305,1.20474 -19.109245,6.78947 -41.049491,4.41061 -59.143271,-3.86948 -7.395473,-3.71634 -13.80625,-8.21883 -20.001627,-13.67082 -0.625692,-0.53091 -1.251383,-1.06181 -1.89759,-1.60293 C 13.408633,126.18313 4.7002326,106.01891 3.8078516,87.957907 c -0.04103,-2.10321 -0.05129,-4.206406 -0.04103,-6.299401 0.01026,-1.112861 0.01026,-2.22572 0.02051,-3.36921 0.205145,-9.464415 1.887333,-17.325902 5.620969,-25.98375 0.451319,-1.07202 0.8923814,-2.144043 1.3539574,-3.246693 8.616086,-18.826733 23.807065,-32.507764 42.752196,-40.6551256 4.400357,-1.613135 8.790458,-2.971029 13.334418,-4.083889 0.779551,-0.204195 1.548843,-0.398179 2.338652,-0.602374 20.370881,-3.10375696 41.480286,1.480411 58.568856,12.9050926 z"
     fill="#5271fd"
     id="path2"
     style="stroke-width:1.02334" />
  <path
     d="m 132.44688,15.821007 c 16.77,13.17 29.76,31.61 33,53 1.83,24.81 -1.58,47.670003 -18.2,67.040003 -2.21,2.41 -4.4,4.74 -6.8,6.96 -0.6,0.59 -1.2,1.18 -1.81,1.79 -15.81,15.03 -37,21.66 -58.559995,21.58 -18.75,-0.53 -36.72,-7.86 -50.63,-20.37 -0.61,-0.47 -1.21,-0.93 -1.84,-1.41 -12.28,-9.53 -21.4500004,-26.59 -25.1600004,-41.59 -0.2,-0.78 -0.4,-1.55 -0.61,-2.35 -4.65,-20.910003 -0.24,-42.740003 10.6100004,-61.020003 8.51,-12.9 18.79,-21.96 32,-29.6299996 0.74,-0.43 1.48,-0.86 2.25,-1.3 26.89,-14.43 61.239995,-9.56 85.749995,7.2999996 z m -99.999995,9 c -0.57,0.42 -1.15,0.84 -1.74,1.28 -13.27,10.06 -21.0500004,27.86 -24.2600004,43.72 -0.39,4.16 -0.42,8.26 -0.38,12.44 -0.01,1.04 -0.02,2.08 -0.03,3.16 0.07,19.790003 8.6200004,37.770003 22.0500004,52.060003 15.3,15.15 33.25,22.64 54.67,22.9 22.519995,-0.13 40.599995,-7.87 56.869995,-23.68 15.71,-16.68 21.43,-37.070003 21.09,-59.480003 -0.58,-16.45 -8.23,-33.25 -19.27,-45.4 -0.64,-0.73 -1.28,-1.47 -1.95,-2.22 -13.3,-14.31 -32.21,-23.0899996 -51.649995,-24.0299996 -20.81,-0.68 -39.58,5.5099996 -55.4,19.2499996 z"
     fill="#e8d160"
     id="path3" />
  <path
     d="m 93.446885,62.821007 c 2.69,0.17 5.3,0.09 7.999995,0 -0.53,4.17 -1.759995,6.29 -4.499995,9.44 -2.85,3.49 -4.38,5.91 -4.5,10.56 5.58,-1.61 9.469995,-3.27 13.999995,-7 0.99,0.33 1.98,0.66 3,1 0,0.99 0,1.98 0,3 -5,4.51 -10.399995,7.71 -16.999995,9 -0.07,0.55 -0.15,1.1 -0.23,1.66 -1.94,11.740003 -6.57,24.490003 -14.77,33.340003 -4.65,3.29 -7.42,3.63 -13,3 -3.02,-2.17 -3.02,-4.1 -3.69,-7.75 0.34,-10.23 7.97,-21.120003 14.34,-28.650003 1.35,-1.6 1.35,-1.6 2.35,-3.6 -0.97,0.5 -1.94,0.99 -2.94,1.5 -4.27,1.83 -8.47,2.19 -13.06,1.5 -0.99,-0.66 -1.98,-1.32 -3,-2 -0.79,-5.09 -0.46,-7.92 2.56,-12.12 8.64,-10.32 18.88,-18.3 32.44,-12.88 z"
     fill="#e9d062"
     id="path4" />
  <path
     d="m 84.446885,86.821007 c 0.66,0 1.32,0 2,0 1.14,11.35 -4.4,22.980003 -11,32.000003 -2.01,2.29 -2.01,2.29 -4,4 -2.75,-0.25 -2.75,-0.25 -5,-1 0.28,-7.73 2.45,-12.28 6.75,-18.62 0.53,-0.81 1.05,-1.62 1.59,-2.45 1.53,-2.330003 3.09,-4.630003 4.66,-6.930003 0.47,-0.71 0.95,-1.41 1.44,-2.14 1.13,-1.66 2.34,-3.27 3.56,-4.86 z"
     fill="#5975f7"
     id="path5" />
  <path
     d="m 87.446885,64.821007 c 0.33,0.33 0.66,0.66 1,1 -0.31,5.33 -1.12,8.31 -5,12 -10.99,7.3 -10.99,7.3 -18,7 -1,-1 -1,-1 -1.25,-3.31 0.44,-4.8 3.79,-7.58 7.25,-10.69 2.89,-1.92 5.87,-3.51 9,-5 2.48,-1.24 4.25,-1.14 7,-1 z"
     fill="#5875f8"
     id="path6" />
</svg>
