<?xml version="1.0" encoding="UTF-8"?>
<!-- Generator: visioncortex VTracer 0.6.5 -->
<svg version="1.1" xmlns="http://www.w3.org/2000/svg" width="200" height="200">
<path d="M0 0 C66 0 132 0 200 0 C200 66 200 132 200 200 C134 200 68 200 0 200 C0 134 0 68 0 0 Z " fill="#55B38E" transform="translate(0,0)"/>
<path d="M0 0 C4.51 3.35 8.62 7.01 12.62 10.95 C13.32 11.62 14.02 12.3 14.75 12.99 C24.04 22.63 29.45 35.08 32.62 47.95 C32.82 48.69 33.01 49.43 33.2 50.2 C35.27 63.67 33.83 77.08 29.62 89.95 C29.34 90.86 29.05 91.78 28.75 92.73 C22.13 111.39 6.74 126.27 -10.81 134.76 C-12.66 135.51 -14.51 136.24 -16.38 136.95 C-16.84 137.14 -16.84 137.14 -19.22 138.13 C-37.85 144.78 -59.24 142.45 -76.88 134.34 C-84.09 130.7 -90.34 126.29 -96.38 120.95 C-96.99 120.43 -97.6 119.91 -98.23 119.38 C-111.48 107.31 -119.97 87.56 -120.84 69.87 C-120.88 67.81 -120.89 65.75 -120.88 63.7 C-120.87 62.61 -120.87 61.52 -120.86 60.4 C-120.66 51.13 -119.02 43.43 -115.38 34.95 C-114.94 33.9 -114.51 32.85 -114.06 31.77 C-105.66 13.33 -90.85 -0.07 -72.38 -8.05 C-68.09 -9.63 -63.81 -10.96 -59.38 -12.05 C-58.62 -12.25 -57.87 -12.44 -57.1 -12.64 C-37.24 -15.68 -16.66 -11.19 0 0 Z " fill="#5271FD" transform="translate(143.375,35.0546875)"/>
<path d="M0 0 C16.77 13.17 29.76 31.61 33 53 C34.83 77.81 31.42 100.67 14.8 120.04 C12.59 122.45 10.4 124.78 8 127 C7.4 127.59 6.8 128.18 6.19 128.79 C-9.62 143.82 -30.81 150.45 -52.37 150.37 C-71.12 149.84 -89.09 142.51 -103 130 C-103.61 129.53 -104.21 129.07 -104.84 128.59 C-117.12 119.06 -126.29 102 -130 87 C-130.2 86.22 -130.4 85.45 -130.61 84.65 C-135.26 63.74 -130.85 41.91 -120 23.63 C-111.49 10.73 -101.21 1.67 -88 -6 C-87.26 -6.43 -86.52 -6.86 -85.75 -7.3 C-58.86 -21.73 -24.51 -16.86 0 0 Z M-100 9 C-100.57 9.42 -101.15 9.84 -101.74 10.28 C-115.01 20.34 -122.79 38.14 -126 54 C-126.39 58.16 -126.42 62.26 -126.38 66.44 C-126.39 67.48 -126.4 68.52 -126.41 69.6 C-126.34 89.39 -117.79 107.37 -104.36 121.66 C-89.06 136.81 -71.11 144.3 -49.69 144.56 C-27.17 144.43 -9.09 136.69 7.18 120.88 C22.89 104.2 28.61 83.81 28.27 61.4 C27.69 44.95 20.04 28.15 9 16 C8.36 15.27 7.72 14.53 7.05 13.78 C-6.25 -0.53 -25.16 -9.31 -44.6 -10.25 C-65.41 -10.93 -84.18 -4.74 -100 9 Z " fill="#E8D160" transform="translate(149,32)"/>
<path d="M0 0 C2.69 0.17 5.3 0.09 8 0 C7.47 4.17 6.24 6.29 3.5 9.44 C0.65 12.93 -0.88 15.35 -1 20 C4.58 18.39 8.47 16.73 13 13 C13.99 13.33 14.98 13.66 16 14 C16 14.99 16 15.98 16 17 C11 21.51 5.6 24.71 -1 26 C-1.07 26.55 -1.15 27.1 -1.23 27.66 C-3.17 39.4 -7.8 52.15 -16 61 C-20.65 64.29 -23.42 64.63 -29 64 C-32.02 61.83 -32.02 59.9 -32.69 56.25 C-32.35 46.02 -24.72 35.13 -18.35 27.6 C-17 26 -17 26 -16 24 C-16.97 24.5 -17.94 24.99 -18.94 25.5 C-23.21 27.33 -27.41 27.69 -32 27 C-32.99 26.34 -33.98 25.68 -35 25 C-35.79 19.91 -35.46 17.08 -32.44 12.88 C-23.8 2.56 -13.56 -5.42 0 0 Z " fill="#E9D062" transform="translate(110,79)"/>
<path d="M0 0 C0.66 0 1.32 0 2 0 C3.14 11.35 -2.4 22.98 -9 32 C-11.01 34.29 -11.01 34.29 -13 36 C-15.75 35.75 -15.75 35.75 -18 35 C-17.72 27.27 -15.55 22.72 -11.25 16.38 C-10.72 15.57 -10.2 14.76 -9.66 13.93 C-8.13 11.6 -6.57 9.3 -5 7 C-4.53 6.29 -4.05 5.59 -3.56 4.86 C-2.43 3.2 -1.22 1.59 0 0 Z " fill="#5975F7" transform="translate(101,103)"/>
<path d="M0 0 C0.33 0.33 0.66 0.66 1 1 C0.69 6.33 -0.12 9.31 -4 13 C-14.99 20.3 -14.99 20.3 -22 20 C-23 19 -23 19 -23.25 16.69 C-22.81 11.89 -19.46 9.11 -16 6 C-13.11 4.08 -10.13 2.49 -7 1 C-4.52 -0.24 -2.75 -0.14 0 0 Z " fill="#5875F8" transform="translate(104,81)"/>
</svg>
